<?xml version="1.0" standalone="no"?>
<!DOCTYPE svg PUBLIC "-//W3C//DTD SVG 20010904//EN"
 "http://www.w3.org/TR/2001/REC-SVG-20010904/DTD/svg10.dtd">
<svg version="1.0" xmlns="http://www.w3.org/2000/svg"
 width="3163.000000pt" height="1363.000000pt" viewBox="0 0 3163.000000 1363.000000"
 preserveAspectRatio="xMidYMid meet">
<metadata>
Created by potrace 1.16, written by Peter Selinger 2001-2019
</metadata>
<g transform="translate(0.000000,1363.000000) scale(0.100000,-0.100000)"
fill="#000000" stroke="none">
<path d="M7240 12584 c-174 -39 -300 -146 -363 -309 -22 -58 -29 -247 -11
-286 6 -13 22 -49 35 -79 16 -36 47 -79 91 -122 62 -62 96 -84 201 -127 36
-14 228 -14 264 0 168 68 265 163 324 318 17 46 17 214 -1 276 -17 64 -90 174
-143 221 -108 92 -270 136 -397 108z"/>
<path d="M3958 11755 c-2 -2 -66 -10 -143 -20 -77 -9 -156 -20 -175 -25 -19
-5 -80 -19 -135 -31 -178 -39 -435 -118 -547 -167 -24 -11 -72 -32 -108 -47
-175 -74 -471 -242 -639 -364 -284 -206 -582 -500 -797 -788 -156 -210 -331
-523 -429 -768 -15 -38 -31 -79 -36 -90 -4 -11 -22 -65 -40 -120 -17 -55 -35
-109 -39 -120 -17 -45 -50 -175 -50 -199 0 -13 -4 -27 -9 -30 -4 -3 -11 -27
-15 -53 -3 -27 -10 -73 -16 -103 -83 -445 -70 -908 39 -1420 24 -115 100 -364
133 -440 6 -14 14 -34 18 -45 62 -169 206 -448 325 -630 139 -212 251 -351
429 -533 318 -324 624 -547 1012 -737 148 -72 400 -170 529 -206 17 -4 48 -13
70 -19 88 -25 298 -70 380 -81 241 -35 321 -38 985 -42 l485 -3 6 -415 c3
-245 10 -429 16 -451 42 -147 136 -260 270 -325 77 -37 80 -38 199 -38 67 0
132 5 145 11 189 86 296 202 329 354 16 76 9 1358 -7 1414 -43 147 -161 284
-304 355 -70 35 -99 43 -174 51 -49 5 -437 11 -860 14 -740 5 -815 8 -975 38
-412 77 -767 231 -1100 477 -306 226 -615 596 -768 921 -59 125 -92 201 -92
209 0 7 -20 61 -50 136 -5 11 -11 31 -15 45 -3 14 -15 59 -26 100 -45 172 -69
334 -85 585 -8 120 17 418 48 555 5 25 14 65 19 90 48 216 154 488 271 691
131 230 329 475 518 642 268 239 562 412 880 520 404 137 808 174 1225 111 55
-8 118 -19 140 -24 22 -5 54 -12 70 -16 312 -67 656 -229 953 -449 324 -240
630 -628 800 -1015 29 -66 93 -239 104 -280 5 -19 14 -51 19 -70 38 -130 64
-281 79 -455 12 -146 12 -2454 -1 -2520 -5 -27 -21 -131 -35 -230 -23 -163
-26 -209 -26 -495 0 -283 3 -333 26 -495 27 -197 58 -351 105 -520 30 -111
117 -372 130 -390 4 -5 16 -32 26 -60 10 -27 51 -118 90 -202 137 -285 324
-572 544 -833 58 -69 71 -80 71 -58 0 7 0 627 0 1378 1 1359 3 1448 33 1497 3
5 11 70 17 144 7 74 15 152 20 174 15 76 60 230 86 300 14 39 29 81 34 95 34
106 147 332 242 485 137 221 337 455 541 633 138 120 166 141 297 228 309 205
602 329 990 418 282 65 734 75 1054 25 72 -11 133 -22 137 -25 4 -2 38 -10 76
-18 168 -34 404 -121 620 -229 281 -140 540 -332 765 -565 60 -62 111 -112
114 -112 3 0 114 93 246 207 133 115 276 237 318 273 131 111 180 155 180 162
0 3 -12 19 -27 35 -297 310 -433 433 -653 589 -116 83 -238 164 -246 164 -3 0
-18 8 -32 19 -70 49 -396 211 -527 261 -11 4 -36 15 -55 23 -135 57 -473 154
-630 182 -19 3 -53 10 -75 15 -116 26 -491 60 -669 60 -188 0 -570 -36 -701
-65 -33 -8 -94 -21 -135 -30 -124 -26 -288 -74 -455 -132 -123 -43 -125 -44
-310 -129 -411 -188 -755 -424 -1071 -735 -67 -65 -124 -119 -128 -119 -3 0
-6 670 -6 1489 0 951 -4 1508 -10 1542 -26 140 -136 277 -277 346 -77 38 -79
38 -198 38 -114 -1 -124 -2 -189 -33 -123 -57 -221 -161 -268 -286 -15 -39
-20 -78 -21 -168 -1 -65 -5 -118 -9 -118 -4 0 -37 31 -75 68 -179 178 -363
326 -573 461 -193 124 -374 220 -525 280 -44 18 -88 36 -97 41 -68 37 -485
160 -613 181 -279 48 -422 59 -702 58 -155 -1 -283 -3 -285 -4z"/>
<path d="M17880 10818 c-10 -4 -21 -11 -24 -17 -3 -5 -6 -657 -6 -1449 0 -791
-3 -1441 -6 -1444 -7 -7 -70 32 -100 61 -12 12 -25 21 -30 21 -5 0 -38 21 -74
46 -36 24 -78 52 -95 60 -16 8 -52 28 -80 44 -27 16 -68 38 -90 50 -22 11 -51
27 -65 35 -14 8 -34 15 -46 15 -11 0 -29 9 -39 20 -10 11 -26 20 -35 20 -23 0
-87 27 -95 40 -3 5 -19 10 -34 10 -15 0 -49 11 -75 25 -26 14 -59 25 -74 25
-15 0 -47 11 -72 24 -26 13 -70 25 -106 29 -33 2 -76 13 -95 23 -21 12 -66 21
-119 25 -47 3 -114 14 -150 24 -57 16 -108 19 -440 18 -331 0 -380 -2 -415
-17 -23 -10 -80 -19 -135 -23 -60 -4 -108 -12 -130 -23 -19 -10 -62 -21 -95
-25 -32 -4 -82 -18 -110 -31 -27 -13 -66 -24 -86 -24 -21 0 -47 -8 -62 -20
-14 -11 -40 -23 -59 -26 -18 -4 -46 -15 -63 -24 -16 -10 -46 -21 -65 -25 -19
-4 -46 -16 -59 -26 -13 -11 -31 -19 -41 -19 -9 0 -34 -11 -54 -25 -20 -14 -43
-25 -50 -25 -6 0 -27 -11 -46 -25 -19 -14 -42 -25 -52 -25 -9 0 -25 -8 -35
-19 -10 -10 -36 -28 -58 -40 -22 -12 -52 -29 -66 -39 -14 -9 -41 -27 -60 -39
-19 -12 -45 -31 -57 -43 -13 -11 -28 -20 -33 -20 -26 0 -204 -149 -387 -325
-117 -112 -113 -107 -165 -173 -21 -26 -73 -90 -116 -142 -42 -52 -80 -102
-84 -110 -4 -8 -23 -35 -42 -60 -19 -25 -42 -58 -51 -75 -8 -16 -28 -50 -44
-75 -16 -25 -41 -67 -55 -95 -13 -27 -28 -57 -33 -65 -21 -36 -42 -77 -53
-100 -18 -41 -55 -122 -83 -181 -14 -31 -26 -67 -26 -80 0 -14 -7 -35 -16 -47
-8 -12 -21 -41 -27 -63 l-12 -41 -39 73 c-292 556 -760 976 -1347 1210 -66 26
-156 56 -226 75 -29 8 -79 21 -110 30 -32 8 -78 17 -103 20 -25 3 -58 9 -75
14 -90 27 -541 37 -695 15 -462 -66 -824 -206 -1170 -453 -388 -277 -685 -643
-876 -1077 -32 -73 -91 -241 -110 -312 -8 -29 -21 -79 -30 -110 -17 -67 -28
-127 -49 -272 -13 -89 -15 -429 -15 -2439 0 -1284 1 -2336 2 -2338 2 -1 39 24
83 55 44 32 163 114 265 182 102 69 228 155 280 191 52 35 203 138 335 228
132 89 248 170 258 178 16 14 17 61 17 724 0 613 2 708 15 708 8 0 38 -14 67
-31 156 -93 415 -194 608 -239 52 -12 106 -26 120 -30 14 -5 68 -14 120 -20
52 -6 125 -16 162 -21 87 -12 337 -12 430 1 40 5 111 14 158 20 303 39 661
171 958 352 416 254 786 672 988 1116 15 35 30 58 32 50 2 -7 12 -29 22 -48
10 -20 21 -51 25 -70 4 -19 18 -48 31 -63 13 -16 24 -34 24 -40 0 -18 107
-234 120 -242 6 -3 19 -23 30 -43 33 -60 61 -105 81 -131 10 -13 19 -28 19
-34 0 -5 20 -33 43 -61 24 -28 48 -58 53 -68 5 -9 26 -36 47 -60 20 -23 60
-72 89 -108 52 -66 173 -188 268 -270 28 -25 61 -55 73 -67 11 -13 26 -23 33
-23 7 0 17 -6 21 -14 13 -23 159 -132 293 -218 52 -33 106 -68 120 -78 23 -15
52 -29 220 -108 30 -14 62 -32 71 -39 10 -8 39 -20 65 -28 88 -25 167 -55 183
-69 9 -7 39 -17 66 -21 28 -3 73 -17 102 -31 28 -13 62 -24 74 -24 27 0 93
-18 136 -36 17 -8 62 -14 100 -14 44 0 90 -7 128 -21 56 -20 83 -21 385 -23
414 -1 496 2 535 24 18 11 63 20 112 23 45 4 98 13 117 21 19 8 61 18 93 21
39 5 66 15 83 30 18 16 43 25 89 29 35 4 80 16 100 27 19 10 43 19 51 19 8 0
29 9 46 19 17 10 46 22 65 26 19 4 43 15 54 24 11 10 39 23 62 30 23 6 45 15
48 20 3 5 47 30 97 56 147 74 197 101 236 132 42 33 59 45 138 97 33 21 67 47
77 57 10 10 42 37 72 59 30 22 55 44 55 48 0 4 14 16 31 26 44 26 285 272 329
336 13 19 40 54 59 77 46 53 113 140 127 164 6 10 17 27 25 36 9 10 21 29 27
43 7 14 26 45 42 70 16 25 33 52 37 60 3 8 17 32 30 52 13 21 23 44 23 51 0 7
11 24 25 37 14 13 25 33 25 44 0 12 7 32 14 46 29 49 86 173 86 184 0 6 9 28
20 48 11 20 25 58 31 85 7 26 18 60 25 74 7 15 18 49 24 75 6 27 19 67 29 89
10 22 19 60 20 85 1 25 10 68 21 97 21 55 25 84 36 238 3 55 11 109 17 119 5
11 13 150 17 310 7 254 10 299 28 351 11 33 23 86 26 119 4 33 15 70 26 85 10
15 22 40 26 57 3 16 15 43 24 59 10 17 21 46 25 65 9 43 55 140 95 200 16 25
35 56 42 70 7 14 24 39 38 57 48 60 96 128 109 156 8 15 19 27 24 27 5 0 60
52 122 115 63 63 120 115 128 115 8 0 22 11 31 25 9 14 21 25 26 25 13 0 92
55 114 79 11 12 24 21 30 21 6 0 28 11 48 25 20 14 42 25 48 25 6 0 28 11 48
25 20 14 47 25 60 25 13 0 37 11 54 25 19 16 42 25 64 25 19 0 51 8 72 19 20
10 53 22 72 26 19 3 58 15 85 26 28 10 100 23 160 28 61 6 153 15 205 22 84
10 134 9 220 -4 37 -6 103 -15 215 -28 55 -7 109 -18 120 -24 11 -7 40 -16 63
-19 24 -4 60 -15 80 -25 21 -10 53 -22 72 -26 19 -4 44 -16 56 -26 12 -11 39
-23 60 -26 21 -3 53 -17 70 -30 17 -12 36 -23 41 -23 6 0 16 -7 23 -15 7 -8
23 -15 36 -15 14 0 41 -15 60 -32 63 -58 69 -62 130 -103 67 -45 224 -193 224
-212 0 -7 5 -13 10 -13 15 0 81 -69 105 -110 11 -19 25 -43 31 -53 7 -11 30
-38 52 -61 22 -22 53 -68 68 -101 16 -33 39 -73 51 -88 13 -16 23 -41 23 -56
0 -15 11 -42 24 -60 13 -18 27 -48 31 -67 3 -20 15 -50 26 -67 10 -18 19 -50
19 -73 0 -26 7 -51 20 -67 12 -15 20 -41 21 -64 0 -43 18 -156 44 -283 20
-100 18 -277 -4 -304 -8 -10 -18 -71 -26 -163 -7 -92 -18 -159 -27 -178 -9
-16 -21 -57 -28 -90 -7 -33 -18 -67 -25 -75 -8 -8 -16 -28 -20 -45 -3 -16 -17
-52 -30 -80 -13 -27 -27 -57 -30 -65 -4 -8 -19 -37 -35 -65 -16 -27 -40 -69
-52 -93 -12 -23 -26 -42 -30 -42 -5 0 -13 -11 -18 -24 -18 -48 -137 -195 -247
-303 -62 -62 -118 -113 -123 -113 -6 0 -19 -9 -30 -20 -10 -10 -38 -32 -61
-47 -23 -15 -52 -35 -64 -43 -12 -8 -35 -24 -51 -34 -16 -11 -45 -30 -65 -43
-19 -12 -40 -23 -45 -23 -6 0 -25 -11 -44 -25 -19 -14 -46 -25 -60 -25 -15 0
-35 -8 -44 -19 -9 -10 -35 -22 -58 -25 -22 -4 -52 -16 -66 -26 -15 -13 -40
-20 -66 -20 -23 0 -60 -9 -81 -20 -28 -15 -73 -24 -150 -30 -60 -5 -125 -14
-144 -20 -56 -16 -201 -22 -276 -11 -38 6 -126 15 -195 22 -79 7 -140 18 -167
29 -23 11 -66 22 -95 26 -29 3 -66 15 -82 26 -15 11 -47 23 -70 26 -22 3 -52
13 -65 23 -13 11 -31 19 -41 19 -9 0 -34 11 -54 25 -20 14 -42 25 -48 25 -6 0
-26 11 -44 25 -18 14 -35 25 -38 25 -12 0 -121 74 -129 87 -4 7 -13 13 -18 13
-31 0 -379 334 -379 363 0 9 -35 56 -78 104 -13 14 -37 53 -55 87 -17 33 -38
70 -48 81 -9 11 -20 34 -23 50 -8 32 -62 95 -82 95 -16 0 -34 -54 -34 -104 0
-24 -9 -55 -20 -74 -11 -18 -23 -54 -27 -80 -3 -26 -17 -67 -30 -91 -12 -24
-23 -53 -23 -64 0 -10 -9 -36 -20 -56 -10 -20 -24 -55 -30 -77 -5 -23 -17 -47
-25 -54 -8 -7 -15 -24 -15 -39 0 -14 -11 -39 -25 -55 -14 -16 -25 -39 -25 -51
0 -12 -11 -34 -25 -49 -14 -15 -25 -35 -25 -44 0 -9 -13 -35 -28 -58 -15 -23
-38 -60 -52 -83 -14 -24 -35 -55 -47 -71 -13 -15 -23 -33 -23 -40 0 -7 -10
-25 -22 -40 -55 -69 -118 -160 -118 -171 0 -26 477 -479 505 -479 3 0 32 -21
64 -48 33 -26 78 -58 102 -72 23 -14 57 -35 76 -48 19 -12 38 -22 42 -22 5 0
25 -13 46 -30 21 -16 44 -30 51 -30 7 0 30 -11 50 -25 20 -14 43 -25 51 -25 8
0 26 -9 40 -20 14 -11 33 -20 42 -20 9 0 34 -12 56 -25 22 -14 50 -25 61 -25
12 0 32 -8 45 -19 13 -10 40 -22 59 -26 19 -4 51 -15 70 -25 19 -10 55 -21 80
-25 25 -4 61 -15 80 -25 36 -18 73 -27 143 -34 20 -2 45 -10 55 -19 11 -10 49
-18 112 -23 52 -4 122 -15 156 -24 72 -21 198 -26 534 -22 197 2 261 7 325 22
44 10 113 22 154 26 40 3 92 14 115 24 22 10 68 21 101 25 33 3 74 15 91 24
17 10 52 21 78 25 26 4 62 16 79 26 18 10 50 21 71 25 22 4 51 15 64 26 14 10
33 19 43 19 16 0 64 21 139 62 8 4 56 28 107 54 50 25 97 52 104 60 6 8 17 14
24 14 8 0 27 11 43 25 17 14 35 25 42 25 6 0 39 21 72 46 33 25 68 48 77 51 9
3 28 17 43 31 14 13 31 22 36 18 5 -3 10 -75 10 -160 1 -114 6 -166 18 -198 8
-23 20 -63 26 -88 6 -25 17 -52 25 -61 7 -9 19 -34 24 -55 16 -57 127 -249
182 -313 84 -98 121 -135 163 -164 22 -15 53 -41 69 -57 16 -17 34 -30 41 -30
7 0 21 -8 31 -19 10 -10 29 -22 43 -25 25 -7 113 -46 162 -72 15 -8 52 -19 83
-25 32 -6 75 -20 98 -32 31 -16 64 -22 146 -25 94 -4 108 -2 121 14 13 17 14
268 10 2174 -5 1974 -6 2157 -21 2180 -11 16 -18 55 -22 110 -3 60 -11 98 -26
128 -11 22 -21 60 -21 82 0 22 -9 58 -20 79 -10 21 -23 65 -29 98 -5 32 -18
74 -29 93 -11 19 -23 51 -26 72 l-7 36 180 -1 c149 -2 183 -5 196 -18 14 -14
16 -198 18 -1820 3 -1808 5 -1893 37 -1994 6 -17 11 -50 12 -73 1 -24 9 -53
18 -65 9 -12 27 -56 40 -97 22 -74 102 -239 160 -332 85 -139 322 -390 426
-453 18 -11 64 -41 102 -67 38 -27 74 -48 79 -48 4 0 32 -16 62 -35 29 -19 58
-35 64 -35 6 0 18 -6 26 -14 17 -14 110 -46 133 -46 8 0 43 -11 79 -25 35 -14
107 -32 159 -40 52 -8 125 -19 161 -25 136 -23 196 1 116 45 -20 12 -53 35
-71 52 -19 16 -47 35 -63 42 -16 6 -44 25 -63 41 -19 17 -39 30 -43 30 -4 0
-40 29 -80 65 -40 36 -79 71 -87 79 -18 15 -83 86 -158 171 -86 97 -197 266
-257 393 -19 40 -35 77 -35 81 0 4 -12 30 -26 57 -31 57 -53 114 -64 164 -5
19 -22 98 -40 175 -17 77 -36 181 -41 230 -18 172 -7 479 21 585 5 19 16 69
24 111 8 42 26 105 40 141 14 35 26 71 26 80 0 30 34 116 87 223 92 183 104
203 197 338 51 74 190 225 268 292 12 11 54 47 93 81 38 34 81 67 95 74 14 7
48 30 75 51 28 21 82 54 122 73 39 20 74 40 78 46 3 5 13 10 21 10 8 0 48 15
87 34 167 78 284 116 361 116 19 0 39 7 46 15 6 7 33 17 58 21 26 3 79 15 117
25 75 21 130 31 265 49 47 6 127 20 179 31 52 10 126 19 165 19 39 0 132 6
206 14 287 32 416 39 720 43 232 2 318 7 327 16 28 28 -22 298 -81 442 -7 17
-19 46 -27 65 -7 19 -26 53 -41 76 -15 22 -32 52 -38 65 -23 52 -53 90 -130
168 -77 79 -159 150 -191 166 -16 9 -39 25 -49 35 -11 11 -32 22 -47 26 -16 4
-47 20 -71 35 -24 16 -51 29 -60 29 -9 0 -48 12 -87 26 -103 38 -177 46 -410
45 -260 -1 -425 -13 -535 -39 -47 -11 -121 -25 -165 -32 -44 -7 -105 -19 -135
-27 -30 -8 -103 -26 -162 -38 -107 -24 -132 -31 -283 -80 -44 -14 -100 -30
-125 -34 -25 -4 -67 -18 -95 -31 -94 -43 -220 -69 -251 -52 -18 10 -54 110
-54 151 0 14 -6 32 -13 40 -8 9 -30 77 -51 151 -21 74 -44 151 -51 170 -16 43
-39 118 -56 185 -30 121 -21 158 51 210 23 17 59 45 82 62 22 18 45 33 51 33
7 0 30 14 51 30 22 17 44 30 48 30 5 0 36 13 70 30 33 16 69 30 79 30 11 0 32
9 47 19 15 11 52 27 82 36 30 8 89 26 130 40 82 26 182 45 246 45 26 0 49 7
63 19 17 15 45 21 119 26 53 3 132 13 176 21 43 8 109 14 147 14 38 0 71 5 75
11 16 27 -33 47 -201 83 -33 7 -80 19 -105 26 -65 18 -77 19 -270 31 -133 9
-201 8 -290 -1 -63 -7 -128 -13 -145 -14 l-30 -1 -5 794 -5 794 -28 10 c-23 7
-34 5 -55 -10 -15 -10 -55 -24 -90 -31 -34 -6 -77 -18 -94 -27 -17 -8 -61 -20
-96 -26 -36 -5 -73 -14 -82 -19 -31 -17 -104 -38 -153 -45 -26 -3 -74 -15
-105 -26 -31 -11 -99 -29 -151 -40 -52 -11 -106 -26 -120 -33 -14 -7 -44 -16
-66 -20 -22 -4 -74 -18 -115 -30 -41 -13 -97 -29 -125 -34 -27 -6 -77 -21
-110 -32 -33 -12 -84 -25 -114 -30 -29 -5 -59 -14 -65 -20 -10 -10 -22 -784
-17 -1053 3 -132 78 -117 -593 -117 -439 0 -585 -3 -594 -12 -7 -7 -12 -22
-12 -35 0 -13 -5 -23 -11 -23 -11 0 -89 61 -144 112 -34 31 -156 119 -260 187
-33 22 -72 49 -87 60 -14 12 -30 21 -36 21 -5 0 -21 9 -34 20 -14 11 -59 36
-99 57 -41 20 -87 47 -102 59 -15 13 -43 26 -62 30 -20 3 -38 10 -41 15 -3 5
-13 9 -23 9 -10 0 -40 11 -67 25 -27 14 -56 25 -65 25 -8 0 -37 11 -65 24 -27
13 -78 29 -114 36 -36 6 -72 18 -80 25 -8 7 -42 15 -75 19 -32 4 -73 14 -90
22 -16 8 -70 20 -120 25 -49 6 -110 18 -135 27 -65 23 -822 22 -887 -1 -23 -9
-86 -19 -140 -23 -71 -5 -104 -12 -121 -25 -14 -10 -50 -20 -90 -24 -37 -4
-81 -15 -98 -25 -17 -10 -51 -21 -74 -25 -24 -4 -66 -18 -94 -31 -28 -13 -61
-24 -73 -24 -12 0 -37 -9 -55 -19 -18 -10 -49 -22 -68 -26 -19 -4 -42 -13 -50
-20 -8 -7 -49 -30 -90 -51 -41 -21 -86 -46 -99 -56 -13 -10 -34 -18 -46 -18
-12 0 -30 -9 -41 -21 -10 -11 -32 -27 -49 -35 -16 -8 -50 -27 -75 -44 -25 -16
-54 -34 -65 -40 -27 -14 -85 -57 -113 -83 -12 -11 -29 -22 -36 -23 -8 -1 -32
-20 -54 -43 -22 -22 -61 -56 -88 -75 -50 -35 -167 -147 -264 -253 -126 -138
-180 -200 -202 -231 -29 -41 -129 -188 -154 -226 -79 -120 -184 -306 -184
-327 0 -6 -9 -22 -20 -36 -11 -14 -20 -34 -20 -44 0 -10 -14 -34 -31 -54 -23
-26 -30 -41 -25 -59 4 -15 -3 -40 -18 -68 -13 -25 -27 -60 -31 -78 -4 -18 -16
-51 -26 -74 -10 -22 -19 -57 -19 -76 -1 -58 -16 -70 -34 -25 -9 20 -16 39 -16
41 0 2 -20 46 -44 98 l-44 95 15 58 c8 32 20 65 27 73 8 8 16 30 20 48 3 19
15 45 26 59 11 14 20 34 20 43 0 20 76 177 90 185 6 4 10 14 10 24 0 10 9 30
20 44 11 14 34 51 50 82 17 32 41 71 55 87 14 16 25 34 25 40 0 10 21 40 73
102 15 19 27 39 27 46 0 11 47 69 130 161 14 15 45 53 70 83 55 68 145 160
242 248 89 81 267 228 276 228 4 0 28 20 55 44 l47 44 0 1320 c0 1122 -2 1321
-14 1331 -16 13 -1202 22 -1236 9z m-1737 -3571 c44 -19 134 -119 216 -243 74
-110 200 -349 189 -359 -22 -23 -464 -90 -544 -83 l-39 3 -3 354 -2 354 75 -6
c41 -4 90 -13 108 -20z m-453 -347 l0 -340 -47 0 c-113 0 -520 64 -540 84 -9
9 110 242 169 333 86 133 145 199 202 227 70 34 72 34 149 35 l67 1 0 -340z
m1012 212 c29 -16 62 -32 73 -36 11 -3 43 -20 70 -36 28 -16 59 -33 71 -39 37
-17 129 -78 143 -95 7 -9 19 -16 26 -16 7 0 19 -10 27 -22 14 -21 13 -23 -36
-46 -63 -29 -203 -87 -233 -96 -20 -7 -27 4 -81 116 -54 113 -103 204 -147
272 -17 26 -17 26 8 26 14 0 49 -13 79 -28z m-1803 -249 c-33 -71 -64 -131
-68 -135 -6 -7 -124 30 -152 48 -7 4 -4 13 7 25 27 30 169 136 191 143 11 4
28 15 38 26 10 11 24 20 31 20 8 0 -10 -49 -47 -127z m2513 -287 c67 -78 131
-170 200 -285 33 -54 35 -58 42 -93 3 -14 17 -40 31 -56 30 -36 85 -199 114
-338 20 -98 42 -266 36 -272 -2 -2 -74 -4 -162 -5 l-158 -2 0 -135 0 -135 162
-3 162 -2 -4 -33 c-21 -162 -30 -217 -55 -318 -50 -201 -134 -399 -242 -573
-43 -68 -119 -175 -149 -210 -4 -4 -61 19 -128 53 -66 34 -171 81 -233 106
-68 26 -112 49 -111 57 0 7 19 83 41 168 22 85 42 173 44 195 l3 40 -134 0
-134 0 -32 -131 c-37 -150 -54 -204 -63 -204 -4 0 -59 11 -122 24 -152 32
-310 55 -445 64 l-110 7 -5 120 -5 120 -130 0 -130 0 -3 -117 c-3 -136 11
-123 -142 -133 -120 -8 -272 -30 -424 -61 -89 -19 -121 -22 -126 -14 -7 12
-44 148 -72 270 l-13 55 -129 3 c-71 1 -133 -1 -137 -5 -10 -11 29 -199 72
-341 10 -35 17 -67 14 -72 -2 -4 -39 -20 -82 -35 -43 -15 -114 -44 -159 -65
-80 -37 -104 -38 -104 -5 0 6 -15 26 -34 44 -18 18 -38 49 -45 70 -6 21 -20
46 -31 56 -11 10 -20 26 -20 36 0 10 -11 30 -24 46 -14 16 -28 43 -32 59 -4
16 -15 40 -24 54 -9 14 -20 38 -24 54 -4 16 -16 40 -26 53 -10 13 -21 49 -25
82 -4 32 -13 71 -21 86 -8 16 -21 69 -29 119 -8 50 -19 114 -24 141 -6 28 -10
69 -10 92 l-1 42 58 3 57 3 0 135 0 135 -58 3 c-52 3 -57 5 -45 19 7 9 18 67
24 139 6 68 17 131 24 139 7 8 18 47 26 86 7 39 18 77 24 84 6 7 17 35 25 63
8 27 22 55 30 62 8 7 17 28 21 49 4 20 14 45 24 56 10 11 21 31 25 45 4 13 16
36 25 50 9 14 24 36 33 50 26 40 100 144 124 174 l23 28 137 -55 c84 -34 137
-61 136 -69 -1 -7 -19 -85 -42 -173 -22 -88 -41 -176 -43 -195 l-3 -35 134 0
135 0 28 115 c39 158 57 220 66 220 4 0 61 -11 127 -25 154 -31 312 -53 445
-63 l105 -7 5 -120 5 -120 130 0 130 0 5 120 5 120 50 3 c116 6 340 35 479 63
82 16 153 26 157 22 4 -5 25 -80 47 -168 l40 -160 133 0 134 0 -3 39 c-2 22
-21 110 -43 195 -22 86 -41 162 -42 169 -1 8 50 34 128 66 72 29 166 71 210
94 44 22 83 41 87 42 4 0 36 -33 70 -74z m-6523 -95 c422 -97 767 -391 925
-789 48 -120 73 -226 86 -367 15 -148 -4 -327 -50 -482 -139 -468 -524 -815
-1010 -910 -102 -20 -353 -22 -450 -4 -679 127 -1134 716 -1079 1396 9 115 19
162 61 295 135 425 507 762 948 859 136 29 139 30 315 26 120 -2 183 -8 254
-24z m4801 -2652 l0 -390 -47 7 c-90 12 -228 144 -363 344 -43 63 -180 323
-180 340 0 24 369 85 528 89 l62 1 0 -391z m490 376 c148 -18 340 -53 360 -65
12 -7 2 -33 -48 -134 -118 -238 -272 -436 -415 -537 -39 -27 -81 -49 -94 -49
l-23 0 0 400 0 400 48 0 c26 0 104 -7 172 -15z m-1340 -155 c0 -16 107 -234
155 -315 25 -43 43 -80 40 -83 -3 -3 -18 4 -33 15 -15 11 -44 26 -64 33 -21 8
-38 17 -38 21 0 4 -26 24 -57 45 -32 22 -84 60 -116 87 -32 26 -62 47 -68 47
-5 0 -9 7 -9 15 0 8 -9 20 -20 27 -11 7 -20 18 -20 25 0 6 46 30 103 52 107
42 127 47 127 31z m2078 -24 c127 -49 262 -114 262 -124 0 -36 -396 -302 -449
-302 -9 0 -33 -11 -53 -25 -20 -14 -43 -25 -50 -25 -7 0 -34 -11 -60 -25 -26
-14 -51 -25 -57 -25 -5 0 29 57 76 128 47 70 119 196 160 280 41 83 76 152 79
152 3 0 44 -15 92 -34z"/>
<path d="M14340 5850 c-19 -19 -20 -33 -20 -460 0 -439 0 -439 22 -460 22 -20
26 -20 1485 -20 1450 0 1463 0 1483 20 19 19 20 33 20 464 l0 445 -22 15 c-20
14 -177 16 -1485 16 -1450 0 -1463 0 -1483 -20z m299 -207 c5 -21 22 -108 37
-193 15 -85 29 -157 31 -159 8 -11 17 19 54 180 22 96 42 182 45 192 4 13 16
17 50 17 54 0 48 13 99 -217 21 -95 42 -173 46 -173 5 0 11 17 14 38 4 20 20
106 36 190 16 85 29 156 29 158 0 2 25 4 55 4 33 0 55 -4 55 -11 0 -6 -27
-132 -60 -281 -33 -148 -60 -271 -60 -274 0 -2 -27 -4 -60 -4 -54 0 -60 2 -65
23 -3 12 -21 86 -40 164 -19 79 -35 150 -35 159 0 9 -5 14 -11 12 -7 -2 -30
-83 -53 -178 l-41 -175 -54 -3 c-30 -2 -57 0 -62 5 -6 6 -129 540 -129 559 0
2 25 4 55 4 l54 0 10 -37z m831 33 c0 -2 13 -73 29 -158 16 -84 32 -170 36
-190 3 -21 9 -38 13 -38 5 0 28 87 52 193 l45 192 47 3 c55 4 44 26 97 -207
37 -161 46 -191 54 -180 2 2 16 74 31 159 15 85 32 172 37 193 l10 37 55 0
c53 0 56 -1 50 -23 -3 -12 -30 -137 -61 -277 -31 -140 -60 -259 -64 -263 -5
-5 -32 -7 -62 -5 l-53 3 -18 75 c-10 41 -28 120 -41 174 -13 55 -28 101 -33
103 -5 1 -27 -73 -48 -165 -22 -92 -42 -173 -44 -179 -3 -9 -25 -13 -63 -13
-32 0 -59 2 -59 4 0 3 -27 126 -60 274 -33 149 -60 275 -60 281 0 7 22 11 55
11 30 0 55 -2 55 -4z m868 -171 c18 -93 35 -180 37 -192 6 -28 25 -31 25 -4 0
10 18 95 40 190 22 94 40 174 40 176 0 10 89 4 96 -6 3 -6 25 -92 48 -190 23
-99 46 -180 51 -180 5 0 15 35 23 78 7 43 23 128 35 188 l22 110 54 3 54 3 -7
-43 c-7 -46 -91 -429 -107 -490 l-10 -38 -58 0 -58 0 -43 185 c-25 101 -47
182 -50 179 -3 -3 -25 -84 -50 -182 l-45 -177 -57 -3 c-55 -3 -58 -2 -64 25
-32 124 -119 534 -115 539 3 3 28 4 56 2 l50 -3 33 -170z"/>
<path d="M4130 9920 c-122 -11 -221 -32 -385 -80 -94 -28 -246 -100 -375 -177
-271 -163 -508 -419 -655 -708 -63 -124 -75 -155 -115 -280 -48 -151 -50 -159
-50 -187 0 -14 -4 -38 -9 -54 -5 -16 -14 -91 -21 -166 -26 -295 35 -620 170
-898 98 -203 199 -342 369 -510 206 -203 438 -343 711 -429 119 -37 155 -46
294 -71 77 -13 415 -13 492 0 140 25 175 34 292 71 520 165 941 561 1131 1064
13 33 26 69 31 80 13 35 28 88 40 145 6 30 16 71 20 90 18 74 25 161 25 330
-1 192 -20 354 -58 470 -8 25 -20 65 -27 90 -23 77 -92 231 -143 320 -146 254
-330 450 -569 608 -225 149 -412 223 -708 281 -73 14 -354 21 -460 11z"/>
<path d="M27465 4460 c-241 -21 -479 -139 -665 -329 -191 -197 -295 -430 -307
-696 -23 -491 319 -948 807 -1081 191 -52 489 -54 660 -5 118 35 144 45 229
89 255 132 466 379 547 641 45 143 47 182 51 786 3 537 2 581 -14 593 -13 9
-152 12 -622 10 -333 0 -642 -4 -686 -8z"/>
<path d="M12678 3247 c-147 -157 -375 -344 -579 -472 -199 -124 -509 -258
-749 -322 -130 -34 -160 -40 -357 -68 -209 -30 -544 -35 -715 -10 -178 26
-301 47 -322 55 -12 4 -46 13 -76 20 -30 7 -102 28 -159 46 -58 19 -106 34
-108 34 -2 0 -3 -234 -3 -519 l0 -520 53 -15 c28 -8 99 -24 157 -35 58 -12
125 -25 150 -31 284 -62 1008 -61 1270 1 25 6 81 17 125 25 245 43 484 118
780 246 292 126 596 310 867 525 134 107 519 482 517 506 0 6 -57 59 -127 117
-69 58 -236 198 -369 313 -134 114 -246 207 -251 207 -4 0 -51 -47 -104 -103z"/>
<path d="M18020 2345 c-52 -13 -129 -31 -171 -40 -67 -14 -76 -19 -72 -36 4
-14 25 -25 79 -41 l74 -21 0 -223 0 -223 -112 6 c-252 13 -447 -66 -555 -225
-56 -82 -83 -172 -90 -297 -10 -181 42 -322 159 -430 81 -76 145 -99 273 -99
112 0 164 15 270 80 33 19 61 32 62 27 20 -58 87 -113 139 -113 35 0 192 44
206 58 16 16 -3 42 -32 42 -15 0 -42 5 -60 11 -62 22 -61 2 -60 812 1 402 -2
732 -7 733 -4 1 -51 -9 -103 -21z m-122 -681 l32 -6 0 -383 0 -383 -62 -23
c-93 -35 -223 -34 -294 3 -86 45 -141 123 -169 240 -28 120 -13 295 34 387 75
146 236 204 459 165z"/>
<path d="M13496 2271 l-40 -6 -292 -694 c-179 -424 -301 -703 -316 -717 -13
-12 -52 -31 -88 -42 -57 -17 -65 -23 -68 -46 l-3 -26 235 0 236 0 0 25 c0 21
-7 27 -57 41 -70 20 -83 29 -83 61 0 13 36 116 81 229 l80 204 262 0 262 0 73
-209 c41 -114 72 -219 70 -232 -2 -20 -15 -28 -68 -46 -56 -18 -65 -25 -68
-47 l-3 -26 279 0 280 0 -7 26 c-5 21 -18 30 -61 43 -80 25 -98 37 -120 81
-16 32 -510 1374 -510 1386 0 5 -21 3 -74 -5z m68 -577 l103 -289 -108 -3
c-59 -1 -159 -1 -221 0 l-114 3 115 292 c63 161 116 291 118 289 3 -2 51 -134
107 -292z"/>
<path d="M14492 2253 c-82 -40 -83 -176 -2 -218 61 -32 128 -14 167 44 75 111
-42 235 -165 174z"/>
<path d="M28843 2043 c-17 -15 -85 -73 -153 -128 -67 -55 -177 -145 -244 -200
-174 -143 -182 -148 -280 -228 -137 -111 -160 -133 -152 -145 5 -9 131 -12
474 -12 448 0 468 1 479 19 9 15 9 40 -2 112 -13 87 -52 473 -58 564 -3 50
-24 56 -64 18z"/>
<path d="M19735 2002 l-49 -17 -37 -125 c-41 -141 -36 -136 -150 -139 -54 -1
-56 -2 -52 -25 4 -22 15 -27 79 -42 l75 -18 -3 -380 c-3 -371 -2 -382 18 -427
62 -133 240 -155 472 -60 58 24 67 31 70 56 3 25 1 27 -20 21 -13 -3 -68 -9
-123 -12 -119 -8 -163 6 -192 58 -16 29 -18 65 -21 293 -2 143 -1 302 3 353
l7 92 159 0 159 0 0 50 0 50 -160 0 -160 0 0 145 c0 161 5 153 -75 127z"/>
<path d="M14510 1734 c-80 -19 -155 -37 -167 -39 -28 -6 -31 -41 -5 -49 9 -3
43 -12 75 -21 l57 -16 0 -382 c0 -210 -4 -388 -8 -395 -5 -7 -37 -21 -73 -31
-51 -14 -65 -22 -67 -39 l-3 -22 255 0 c246 0 256 1 256 19 0 15 -13 23 -57
36 -32 9 -68 23 -81 31 l-23 15 1 462 c1 254 -2 462 -7 463 -4 1 -73 -14 -153
-32z"/>
<path d="M15115 1734 c-77 -19 -150 -37 -162 -39 -14 -3 -23 -13 -23 -25 0
-16 15 -24 75 -41 l75 -22 0 -646 c0 -355 -4 -651 -8 -657 -4 -7 -36 -21 -72
-32 -51 -15 -66 -24 -68 -41 -3 -21 -3 -21 262 -21 146 0 266 4 266 8 0 21
-31 41 -90 56 -36 10 -71 25 -77 34 -10 11 -13 71 -13 217 l0 202 58 -9 c76
-13 254 -3 322 18 239 72 379 271 380 540 1 405 -331 611 -687 424 l-73 -37 0
53 c0 37 -4 54 -12 53 -7 -1 -76 -17 -153 -35z m533 -131 c104 -53 160 -160
169 -323 13 -227 -58 -387 -202 -452 -42 -19 -68 -22 -155 -23 -58 0 -122 4
-142 8 l-38 8 0 384 c0 371 1 385 19 395 91 48 258 50 349 3z"/>
<path d="M16621 1755 c-212 -46 -376 -216 -411 -426 -16 -94 -7 -226 20 -304
73 -210 266 -327 515 -312 100 6 167 24 266 69 58 26 65 32 61 53 -4 23 -7 24
-51 17 -88 -14 -292 -8 -351 10 -161 49 -234 157 -247 363 -13 211 68 375 212
431 51 19 191 27 227 12 10 -4 32 -55 59 -138 38 -114 46 -130 64 -128 17 3
24 21 46 123 14 66 29 134 33 152 7 30 6 31 -41 47 -138 46 -281 57 -402 31z"/>
<path d="M18730 1755 c-36 -8 -104 -29 -151 -46 l-87 -32 10 -31 c6 -17 13
-34 17 -37 3 -4 47 2 96 12 165 34 284 19 348 -45 41 -40 57 -93 57 -183 l0
-70 -116 -7 c-344 -19 -504 -123 -504 -326 0 -107 54 -191 154 -240 125 -62
280 -50 416 32 l55 33 20 -29 c11 -16 33 -39 48 -50 38 -28 120 -26 212 5 55
19 70 28 70 44 0 16 -9 21 -46 26 -61 9 -88 24 -100 57 -6 16 -9 146 -8 337 2
268 0 317 -14 360 -54 163 -246 239 -477 190z m288 -702 l-3 -178 -40 -14
c-23 -8 -80 -15 -135 -15 -77 -1 -102 3 -135 20 -51 26 -85 89 -85 156 0 141
99 202 333 207 l67 1 -2 -177z"/>
<path d="M20580 1755 c-36 -8 -104 -29 -151 -46 l-87 -32 10 -31 c6 -17 13
-34 17 -37 3 -4 47 2 96 12 165 34 284 19 348 -45 41 -40 57 -93 57 -183 l0
-70 -116 -7 c-344 -19 -504 -123 -504 -326 0 -107 54 -191 154 -240 125 -62
280 -50 416 32 l55 33 20 -29 c11 -16 33 -39 48 -50 38 -28 120 -26 212 5 55
19 70 28 70 44 0 16 -9 21 -46 26 -61 9 -88 24 -100 57 -6 16 -9 146 -8 337 2
268 0 317 -14 360 -54 163 -246 239 -477 190z m288 -702 l-3 -178 -40 -14
c-23 -8 -80 -15 -135 -15 -77 -1 -102 3 -135 20 -51 26 -85 89 -85 156 0 141
99 202 333 207 l67 1 -2 -177z"/>
</g>
</svg>
